# xmcd
#
# Track frame offsets:
#	150
#	15916
#	31528
#	45094
#	59706
#	82057
#	98206
#	112328
#	127900
#	145026
#	166762
#	182423
#	206892
#	216794
#	242593
#	250430
#	261974
#	279152
#	296619
#	304794
#
# Disc length: 4345 seconds
#
# Revision: 0
# Processed by: cddbd v1.5.1PL0 Copyright (c) Steve Scherf et al.
# Submitted via: dBpowerAMP V4.0
#
DISCID=1510f714
DTITLE=MISART - Piesni religijne AVE MARIA
DYEAR=1900
DGENRE=RELIGIOUS
TTITLE0=My chcemy Bog
TTITLE1=Z dawna Polski
TTITLE2=Juz od rana
TTITLE3=Chwalcie laki
TTITLE4=Po gorach dolinach
TTITLE5=Ave Maria - Schubert
TTITLE6=Ave Maria - Gounod - Bach
TTITLE7=OMaryjo przyjm
TTITLE8=W ofierze
TTITLE9=Matko Najswietsza
TTITLE10=Ojczyzno ma (ojczyzno)
TTITLE11=Zdrowas Maryjo Bogarodzico
TTITLE12=Aniol Panski
TTITLE13=Zawitaj Krolowo
TTITLE14=Czarna Madonno
TTITLE15=Matko Bolesna
TTITLE16=Matko Najswietsza
TTITLE17=Wielkie rzeczy
TTITLE18=Pamietaj Panno Maryjo
TTITLE19=Serdeczna Matko
EXTD=
EXTT0=
EXTT1=
EXTT2=
EXTT3=
EXTT4=
EXTT5=
EXTT6=
EXTT7=
EXTT8=
EXTT9=
EXTT10=
EXTT11=
EXTT12=
EXTT13=
EXTT14=
EXTT15=
EXTT16=
EXTT17=
EXTT18=
EXTT19=
PLAYORDER=
